<svg width="406" height="141" viewBox="0 0 406 141" fill="none" xmlns="http://www.w3.org/2000/svg">
<path d="M147.095 94.9873V45.1919H167.779C171.493 45.1919 174.601 45.7187 177.104 46.7723C179.623 47.8259 181.512 49.301 182.772 51.1975C184.047 53.094 184.685 55.2904 184.685 57.7866C184.685 59.6831 184.29 61.377 183.498 62.8683C182.707 64.3433 181.617 65.5671 180.229 66.5397C178.84 67.5123 177.233 68.1931 175.409 68.5821V69.0684C177.411 69.1656 179.26 69.7087 180.955 70.6974C182.667 71.6862 184.039 73.064 185.073 74.8308C186.106 76.5815 186.623 78.6563 186.623 81.0553C186.623 83.7298 185.945 86.1207 184.588 88.2279C183.232 90.319 181.27 91.9723 178.703 93.188C176.135 94.3875 173.019 94.9873 169.354 94.9873H147.095ZM159.084 85.2859H166.496C169.095 85.2859 171.009 84.7915 172.236 83.8028C173.479 82.814 174.101 81.4362 174.101 79.6693C174.101 78.3888 173.802 77.2866 173.205 76.3626C172.607 75.4225 171.76 74.7012 170.662 74.1987C169.564 73.68 168.248 73.4206 166.714 73.4206H159.084V85.2859ZM159.084 65.6644H165.721C167.029 65.6644 168.191 65.4456 169.208 65.0079C170.226 64.5703 171.017 63.9381 171.582 63.1114C172.163 62.2847 172.454 61.2879 172.454 60.1208C172.454 58.4512 171.865 57.1382 170.686 56.1819C169.507 55.2255 167.917 54.7474 165.914 54.7474H159.084V65.6644Z" fill="url(#paint0_linear_1_65)"/>
<path d="M214.384 78.867V57.6407H226.203V94.9873H214.917V88.0334H214.529C213.706 90.3189 212.301 92.1344 210.315 93.4798C208.345 94.809 205.963 95.4735 203.17 95.4735C200.635 95.4735 198.406 94.89 196.485 93.7229C194.563 92.5558 193.07 90.9268 192.004 88.8358C190.938 86.7286 190.397 84.2647 190.381 81.4443V57.6407H202.225V79.1101C202.241 81.1363 202.774 82.7329 203.824 83.9C204.873 85.0671 206.302 85.6506 208.111 85.6506C209.289 85.6506 210.347 85.3913 211.284 84.8726C212.236 84.3377 212.987 83.5677 213.536 82.5627C214.101 81.5415 214.384 80.3096 214.384 78.867Z" fill="url(#paint1_linear_1_65)"/>
<path d="M239.646 108.992C238.226 108.992 236.885 108.879 235.626 108.652C234.366 108.441 233.285 108.157 232.38 107.801L234.996 99.1693C236.159 99.5583 237.208 99.7853 238.145 99.8501C239.097 99.9149 239.913 99.7609 240.591 99.3881C241.285 99.0315 241.818 98.3912 242.19 97.4673L242.65 96.3489L229.425 57.6407H241.826L248.681 84.289H249.068L256.019 57.6407H268.493L254.469 98.5614C253.791 100.604 252.83 102.403 251.587 103.959C250.36 105.531 248.769 106.763 246.816 107.655C244.878 108.546 242.488 108.992 239.646 108.992Z" fill="url(#paint2_linear_1_65)"/>
<path d="M280 62.1364V58H298.211V62.1364H291.678V79.0732H286.544V62.1364H280Z" fill="#2B2B2B"/>
<path d="M305.899 70.0595V79.0732H300.754V58H305.73V66.17H305.909C306.274 65.1959 306.87 64.4345 307.698 63.8857C308.532 63.3369 309.553 63.0625 310.759 63.0625C311.895 63.0625 312.884 63.3095 313.726 63.8034C314.567 64.2904 315.22 64.9798 315.683 65.8716C316.152 66.7633 316.384 67.806 316.377 68.9996V79.0732H311.232V69.9874C311.239 69.1094 311.015 68.4234 310.559 67.9295C310.103 67.4356 309.461 67.1886 308.634 67.1886C308.094 67.1886 307.617 67.3053 307.203 67.5385C306.796 67.7649 306.477 68.0907 306.246 68.516C306.021 68.9413 305.906 69.4558 305.899 70.0595Z" fill="#2B2B2B"/>
<path d="M327.142 79.3716C325.452 79.3716 323.993 79.0457 322.765 78.3941C321.545 77.7355 320.605 76.7992 319.946 75.585C319.294 74.3639 318.967 72.9131 318.967 71.2325C318.967 69.5998 319.297 68.173 319.956 66.952C320.616 65.7241 321.545 64.7706 322.744 64.0915C323.944 63.4055 325.357 63.0625 326.984 63.0625C328.134 63.0625 329.186 63.2374 330.14 63.5873C331.094 63.9371 331.918 64.455 332.612 65.141C333.307 65.827 333.847 66.6742 334.233 67.6825C334.618 68.6841 334.811 69.8331 334.811 71.1296V72.3849H320.766V69.4627H330.024C330.017 68.9276 329.888 68.4508 329.635 68.0324C329.383 67.6139 329.036 67.2881 328.594 67.0549C328.159 66.8148 327.657 66.6947 327.089 66.6947C326.514 66.6947 325.999 66.8216 325.543 67.0755C325.087 67.3224 324.726 67.662 324.459 68.0941C324.193 68.5194 324.052 69.003 324.038 69.545V72.5187C324.038 73.1635 324.168 73.7294 324.428 74.2165C324.687 74.6966 325.055 75.0705 325.532 75.338C326.009 75.6056 326.577 75.7393 327.237 75.7393C327.692 75.7393 328.106 75.6776 328.478 75.5541C328.85 75.4306 329.169 75.2489 329.435 75.0088C329.702 74.7687 329.902 74.4737 330.035 74.1239L334.759 74.2576C334.562 75.2934 334.131 76.1955 333.465 76.9638C332.805 77.7252 331.939 78.3186 330.866 78.7439C329.793 79.1623 328.552 79.3716 327.142 79.3716Z" fill="#2B2B2B"/>
<path d="M348.969 79.0732L342.699 58H348.453L351.704 71.8087H351.883L355.597 58H360.289L364.003 71.8396H364.181L367.443 58H373.187L366.927 79.0732H361.909L358.027 66.2934H357.859L353.977 79.0732H348.969Z" fill="#2B2B2B"/>
<path d="M378.1 79.3407C377.069 79.3407 376.154 79.1726 375.354 78.8365C374.562 78.4935 373.934 77.979 373.471 77.2931C373.015 76.6002 372.787 75.7325 372.787 74.6898C372.787 73.8117 372.945 73.0709 373.261 72.4672C373.576 71.8636 374.011 71.3731 374.565 70.9958C375.119 70.6185 375.757 70.3338 376.48 70.1418C377.202 69.9428 377.974 69.8091 378.794 69.7405C379.713 69.6582 380.453 69.5724 381.014 69.4832C381.575 69.3872 381.982 69.2534 382.234 69.0819C382.494 68.9036 382.624 68.6532 382.624 68.3308V68.2793C382.624 67.7511 382.438 67.343 382.066 67.0549C381.694 66.7668 381.193 66.6227 380.562 66.6227C379.881 66.6227 379.334 66.7668 378.921 67.0549C378.507 67.343 378.244 67.7409 378.132 68.2485L373.387 68.0838C373.527 67.1235 373.888 66.266 374.47 65.5114C375.06 64.75 375.866 64.1532 376.89 63.721C377.921 63.282 379.159 63.0625 380.604 63.0625C381.635 63.0625 382.585 63.1825 383.455 63.4226C384.324 63.6559 385.082 63.9989 385.727 64.4516C386.372 64.8975 386.87 65.4463 387.221 66.0979C387.579 66.7496 387.758 67.4939 387.758 68.3308V79.0732H382.918V76.8712H382.792C382.504 77.4062 382.136 77.859 381.687 78.2294C381.246 78.5998 380.723 78.8777 380.12 79.0629C379.524 79.2481 378.85 79.3407 378.1 79.3407ZM379.689 76.048C380.243 76.048 380.741 75.9383 381.182 75.7188C381.631 75.4992 381.989 75.1974 382.255 74.8133C382.522 74.4223 382.655 73.9695 382.655 73.455V71.9527C382.508 72.0282 382.329 72.0968 382.119 72.1585C381.915 72.2203 381.691 72.2786 381.445 72.3335C381.2 72.3883 380.947 72.4364 380.688 72.4775C380.428 72.5187 380.179 72.5564 379.941 72.5907C379.457 72.6662 379.043 72.7828 378.7 72.9405C378.363 73.0983 378.103 73.3041 377.921 73.5579C377.746 73.8049 377.658 74.0998 377.658 74.4428C377.658 74.9642 377.847 75.362 378.226 75.6364C378.612 75.9108 379.099 76.048 379.689 76.048Z" fill="#2B2B2B"/>
<path d="M393.47 85C392.853 85 392.271 84.952 391.724 84.8559C391.177 84.7668 390.707 84.6467 390.314 84.4958L391.45 80.843C391.955 81.0076 392.411 81.1037 392.818 81.1311C393.232 81.1585 393.586 81.0934 393.881 80.9356C394.182 80.7847 394.414 80.5137 394.575 80.1227L394.775 79.6494L389.031 63.2683H394.417L397.394 74.5457H397.563L400.582 63.2683H406L399.909 80.5857C399.614 81.4501 399.197 82.2115 398.657 82.87C398.124 83.5354 397.433 84.0568 396.584 84.4341C395.743 84.8114 394.705 85 393.47 85Z" fill="#2B2B2B"/>
<circle cx="63.6725" cy="77.2198" r="63.6725" fill="url(#paint3_linear_1_65)"/>
<path fill-rule="evenodd" clip-rule="evenodd" d="M37.9256 131.497L15.8746 93.3031C14.0201 90.0911 13.9092 86.1608 15.5795 82.8492L33.8537 46.62C35.8349 42.6922 39.9658 40.3225 44.3566 40.5951L84.4436 43.0838C88.1238 43.3123 91.4446 45.3694 93.2883 48.5627L120.715 96.0679C112.81 120.005 90.2588 137.28 63.6725 137.28C54.4583 137.28 45.7288 135.205 37.9256 131.497ZM52.0043 51.8382C54.0388 55.362 52.9566 59.7956 49.5872 61.7409C46.2179 63.6862 41.8372 62.4066 39.8027 58.8828C37.7682 55.359 38.8504 50.9254 42.2198 48.9801C45.5892 47.0348 49.9699 48.3144 52.0043 51.8382Z" fill="url(#paint4_linear_1_65)"/>
<path d="M42.1481 51.0318C42.1282 51.0336 42.1055 51.0353 42.0797 51.0366C41.8399 51.0487 41.4651 51.022 40.9362 50.9149C39.8795 50.7008 38.4695 50.2204 36.7903 49.4734C33.4479 47.9866 29.3163 45.5683 25.3011 42.6204C21.2829 39.6704 17.4648 36.2511 14.6969 32.7938C11.8821 29.278 10.3856 26.0131 10.4631 23.3185C10.6351 17.3288 14.4212 12.1981 19.377 9.39566C24.3611 6.5772 30.0206 6.36473 33.9531 9.41681C35.8668 10.902 37.6758 13.9847 39.1885 18.2237C40.672 22.3808 41.7631 27.3384 42.4354 32.2057C43.1076 37.0733 43.3497 41.7688 43.1707 45.3874C43.0809 47.204 42.888 48.6811 42.6189 49.7477C42.4844 50.281 42.3442 50.6567 42.2204 50.9008C42.1926 50.9557 42.1682 50.9987 42.1481 51.0318Z" stroke="url(#paint5_linear_1_65)" stroke-width="4"/>
<defs>
<linearGradient id="paint0_linear_1_65" x1="202.076" y1="45.1919" x2="207.604" y2="109.214" gradientUnits="userSpaceOnUse">
<stop stop-color="#3A8C6A"/>
<stop offset="1" stop-color="#57C597"/>
</linearGradient>
<linearGradient id="paint1_linear_1_65" x1="202.076" y1="45.1919" x2="207.604" y2="109.214" gradientUnits="userSpaceOnUse">
<stop stop-color="#3A8C6A"/>
<stop offset="1" stop-color="#57C597"/>
</linearGradient>
<linearGradient id="paint2_linear_1_65" x1="202.076" y1="45.1919" x2="207.604" y2="109.214" gradientUnits="userSpaceOnUse">
<stop stop-color="#3A8C6A"/>
<stop offset="1" stop-color="#57C597"/>
</linearGradient>
<linearGradient id="paint3_linear_1_65" x1="97.7641" y1="13.5473" x2="29.5809" y2="140.892" gradientUnits="userSpaceOnUse">
<stop stop-color="#55C294"/>
<stop offset="1" stop-color="#398B69"/>
</linearGradient>
<linearGradient id="paint4_linear_1_65" x1="44.2731" y1="58.4079" x2="78.1095" y2="129.545" gradientUnits="userSpaceOnUse">
<stop stop-color="#FFC267"/>
<stop offset="1" stop-color="#D98200"/>
</linearGradient>
<linearGradient id="paint5_linear_1_65" x1="9.64785" y1="28.726" x2="43.87" y2="45.7749" gradientUnits="userSpaceOnUse">
<stop offset="0.346349" stop-color="#D98200"/>
<stop offset="1" stop-color="#FFC267"/>
</linearGradient>
</defs>
</svg>
